<svg width="32" height="32" viewBox="0 0 32 32" fill="none" xmlns="http://www.w3.org/2000/svg">
<path d="M28.5538 20.4548C24.7897 23.1326 19.8525 23.4301 15.8359 21.3333M3.44576 11.5452C7.21903 8.86088 12.1711 8.5685 16.1929 10.682M20.4981 18.8325C24.347 16.4067 26.5756 11.9655 26.1345 7.34963M11.4423 13.2049C7.62959 15.6388 5.42596 20.0581 5.86487 24.6504M20.7024 13.5161C20.525 8.97135 17.7931 4.82246 13.576 2.89629M11.3007 18.5675C11.508 23.0795 14.2322 27.1894 18.4235 29.1037M25.4279 6.57191C30.6349 11.7789 30.6349 20.2211 25.4279 25.4281C20.2209 30.6351 11.7787 30.6351 6.57175 25.4281C1.36476 20.2211 1.36476 11.7789 6.57175 6.57191C11.7787 1.36492 20.2209 1.36492 25.4279 6.57191ZM19.7711 12.2288C21.8539 14.3116 21.8539 17.6884 19.7711 19.7712C17.6883 21.854 14.3114 21.854 12.2286 19.7712C10.1458 17.6884 10.1458 14.3116 12.2286 12.2288C14.3114 10.146 17.6883 10.146 19.7711 12.2288Z" stroke="#440A8F" stroke-width="2" stroke-linecap="round" stroke-linejoin="round"/>
</svg>
